<svg width="17" height="16" viewBox="0 0 17 16" fill="none" xmlns="http://www.w3.org/2000/svg">
<g id="ClockCountdown">
<path id="Vector" d="M15.0001 8.54002C14.8939 9.775 14.4371 10.954 13.6836 11.9382C12.9301 12.9224 11.9112 13.6709 10.7467 14.0957C9.58222 14.5205 8.32063 14.6039 7.11037 14.3361C5.90012 14.0682 4.79153 13.4603 3.91504 12.5838C3.03855 11.7073 2.43062 10.5987 2.16277 9.38849C1.89493 8.17823 1.97831 6.91664 2.40311 5.75216C2.82791 4.58768 3.57646 3.56875 4.56068 2.81524C5.5449 2.06173 6.72386 1.605 7.95884 1.49877C8.0245 1.49335 8.09059 1.50092 8.15333 1.52104C8.21606 1.54117 8.27422 1.57345 8.32448 1.61605C8.37474 1.65865 8.41612 1.71073 8.44625 1.76932C8.47638 1.82791 8.49468 1.89186 8.50009 1.95752C8.50551 2.02318 8.49794 2.08926 8.47782 2.152C8.4577 2.21474 8.42541 2.27289 8.38281 2.32315C8.34022 2.37341 8.28814 2.41479 8.22955 2.44492C8.17096 2.47506 8.107 2.49335 8.04134 2.49877C6.99609 2.58858 5.99822 2.97506 5.16516 3.61275C4.3321 4.25043 3.69851 5.11279 3.33892 6.09835C2.97934 7.08391 2.90873 8.15167 3.1354 9.176C3.36207 10.2003 3.87659 11.1386 4.61842 11.8804C5.36025 12.6223 6.29853 13.1368 7.32286 13.3635C8.34719 13.5901 9.41495 13.5195 10.4005 13.1599C11.3861 12.8004 12.2484 12.1668 12.8861 11.3337C13.5238 10.5006 13.9103 9.50278 14.0001 8.45752C14.011 8.32491 14.0742 8.20208 14.1757 8.11605C14.2772 8.03001 14.4087 7.98783 14.5413 7.99877C14.674 8.00971 14.7968 8.07288 14.8828 8.17438C14.9688 8.27589 15.011 8.40741 15.0001 8.54002ZM8.00009 4.49877V7.99877C8.00009 8.13138 8.05277 8.25855 8.14654 8.35232C8.24031 8.44609 8.36749 8.49877 8.50009 8.49877H12.0001C12.1327 8.49877 12.2599 8.44609 12.3536 8.35232C12.4474 8.25855 12.5001 8.13138 12.5001 7.99877C12.5001 7.86616 12.4474 7.73898 12.3536 7.64522C12.2599 7.55145 12.1327 7.49877 12.0001 7.49877H9.00009V4.49877C9.00009 4.36616 8.94742 4.23898 8.85365 4.14522C8.75988 4.05145 8.6327 3.99877 8.50009 3.99877C8.36749 3.99877 8.24031 4.05145 8.14654 4.14522C8.05277 4.23898 8.00009 4.36616 8.00009 4.49877ZM10.5001 2.99877C10.6484 2.99877 10.7934 2.95478 10.9168 2.87237C11.0401 2.78996 11.1362 2.67283 11.193 2.53578C11.2498 2.39874 11.2646 2.24794 11.2357 2.10245C11.2067 1.95697 11.1353 1.82333 11.0304 1.71844C10.9255 1.61355 10.7919 1.54212 10.6464 1.51318C10.5009 1.48424 10.3501 1.49909 10.2131 1.55586C10.076 1.61263 9.9589 1.70875 9.87649 1.83209C9.79408 1.95543 9.75009 2.10043 9.75009 2.24877C9.75009 2.44768 9.82911 2.63845 9.96976 2.7791C10.1104 2.91975 10.3012 2.99877 10.5001 2.99877ZM12.7501 4.49877C12.8984 4.49877 13.0434 4.45478 13.1668 4.37237C13.2901 4.28996 13.3862 4.17283 13.443 4.03578C13.4998 3.89874 13.5146 3.74794 13.4857 3.60245C13.4567 3.45697 13.3853 3.32333 13.2804 3.21844C13.1755 3.11355 13.0419 3.04212 12.8964 3.01318C12.7509 2.98424 12.6001 2.99909 12.4631 3.05586C12.326 3.11263 12.2089 3.20875 12.1265 3.33209C12.0441 3.45543 12.0001 3.60043 12.0001 3.74877C12.0001 3.94768 12.0791 4.13845 12.2198 4.2791C12.3604 4.41975 12.5512 4.49877 12.7501 4.49877ZM14.2501 6.74877C14.3984 6.74877 14.5434 6.70478 14.6668 6.62237C14.7901 6.53996 14.8862 6.42283 14.943 6.28578C14.9998 6.14874 15.0146 5.99794 14.9857 5.85245C14.9567 5.70696 14.8853 5.57333 14.7804 5.46844C14.6755 5.36355 14.5419 5.29212 14.3964 5.26318C14.2509 5.23424 14.1001 5.24909 13.9631 5.30586C13.826 5.36263 13.7089 5.45875 13.6265 5.58209C13.5441 5.70543 13.5001 5.85043 13.5001 5.99877C13.5001 6.19768 13.5791 6.38845 13.7198 6.5291C13.8604 6.66975 14.0512 6.74877 14.2501 6.74877Z" fill="#4069D1"/>
</g>
</svg>
