<svg xmlns="http://www.w3.org/2000/svg" width="60" height="69" viewBox="0 0 60 69" fill="none">
<mask id="path-1-inside-1_4439_120083" fill="white">
<path d="M0.000308069 23.5578C0.000308199 22.0767 0.286191 20.6102 0.841636 19.2418C1.39708 17.8735 2.21121 16.6302 3.23754 15.5829C4.26386 14.5357 5.48229 13.7049 6.82325 13.1381C8.16421 12.5714 9.60144 12.2797 11.0529 12.2797C12.5043 12.2797 13.9416 12.5714 15.2825 13.1382C16.6235 13.7049 17.8419 14.5357 18.8682 15.5829C19.8946 16.6302 20.7087 17.8735 21.2641 19.2418C21.8196 20.6102 22.1055 22.0767 22.1055 23.5578L11.0529 23.5578L0.000308069 23.5578Z"/>
</mask>
<path d="M0.000308069 23.5578C0.000308199 22.0767 0.286191 20.6102 0.841636 19.2418C1.39708 17.8735 2.21121 16.6302 3.23754 15.5829C4.26386 14.5357 5.48229 13.7049 6.82325 13.1381C8.16421 12.5714 9.60144 12.2797 11.0529 12.2797C12.5043 12.2797 13.9416 12.5714 15.2825 13.1382C16.6235 13.7049 17.8419 14.5357 18.8682 15.5829C19.8946 16.6302 20.7087 17.8735 21.2641 19.2418C21.8196 20.6102 22.1055 22.0767 22.1055 23.5578L11.0529 23.5578L0.000308069 23.5578Z" fill="#D6BBFB" stroke="#101828" stroke-width="4.83914" mask="url(#path-1-inside-1_4439_120083)"/>
<circle cx="11.053" cy="7.0882" r="5.33154" fill="#D6BBFB" stroke="#101828" stroke-width="2.41957"/>
<path d="M8.12109 3.37193C13.7503 -0.265025 17.6593 6.51233 14.888 9.79461C16.0138 4.47331 12.1048 2.4472 8.12109 3.37193Z" fill="#F4EBFF"/>
<path d="M5.41406 16.0963C11.1207 14.7751 16.7482 16.5692 18.4169 21.7473H20.1384C19.0884 16.1435 13.0724 11.1613 5.41406 16.0963Z" fill="#F4EBFF"/>
<mask id="path-5-inside-2_4439_120083" fill="white">
<path d="M15.788 54.4719C15.788 52.5979 16.1498 50.7422 16.8526 49.0109C17.5554 47.2795 18.5855 45.7064 19.8841 44.3813C21.1827 43.0561 22.7244 42.005 24.4211 41.2878C26.1179 40.5707 27.9364 40.2016 29.7729 40.2016C31.6094 40.2016 33.428 40.5707 35.1247 41.2878C36.8214 42.005 38.3631 43.0561 39.6617 44.3813C40.9604 45.7064 41.9905 47.2795 42.6933 49.0109C43.3961 50.7422 43.7578 52.5979 43.7578 54.4719L29.7729 54.4719L15.788 54.4719Z"/>
</mask>
<path d="M15.788 54.4719C15.788 52.5979 16.1498 50.7422 16.8526 49.0109C17.5554 47.2795 18.5855 45.7064 19.8841 44.3813C21.1827 43.0561 22.7244 42.005 24.4211 41.2878C26.1179 40.5707 27.9364 40.2016 29.7729 40.2016C31.6094 40.2016 33.428 40.5707 35.1247 41.2878C36.8214 42.005 38.3631 43.0561 39.6617 44.3813C40.9604 45.7064 41.9905 47.2795 42.6933 49.0109C43.3961 50.7422 43.7578 52.5979 43.7578 54.4719L29.7729 54.4719L15.788 54.4719Z" fill="#D6BBFB" stroke="#101828" stroke-width="6.12299" mask="url(#path-5-inside-2_4439_120083)"/>
<circle cx="29.7729" cy="33.6362" r="6.74603" fill="#D6BBFB" stroke="#101828" stroke-width="3.06149"/>
<path d="M26.0625 28.9301C33.1851 24.3282 38.1312 32.9037 34.6247 37.0568C36.0492 30.3237 31.1031 27.76 26.0625 28.9301Z" fill="#F4EBFF"/>
<path d="M22.6406 45.0379C29.8613 43.3663 36.9818 45.6364 39.0932 52.1882H41.2715C39.9429 45.0977 32.3308 38.7937 22.6406 45.0379Z" fill="#F4EBFF"/>
<path d="M22.1055 10.2422H37.6693" stroke="black" stroke-width="2.41957" stroke-linecap="round"/>
<path d="M41.9531 36.3594L49.1711 29.1414" stroke="black" stroke-width="2.41957" stroke-linecap="round"/>
<path d="M18.0469 36.3594L10.8289 29.1414" stroke="black" stroke-width="2.41957" stroke-linecap="round"/>
<mask id="path-12-inside-3_4439_120083" fill="white">
<path d="M37.8948 23.5578C37.8948 22.0767 38.1807 20.6102 38.7362 19.2418C39.2916 17.8735 40.1057 16.6302 41.1321 15.5829C42.1584 14.5357 43.3768 13.7049 44.7178 13.1381C46.0587 12.5714 47.496 12.2797 48.9474 12.2797C50.3989 12.2797 51.8361 12.5714 53.1771 13.1382C54.518 13.7049 55.7364 14.5357 56.7628 15.5829C57.7891 16.6302 58.6032 17.8735 59.1587 19.2418C59.7141 20.6102 60 22.0767 60 23.5578L48.9474 23.5578L37.8948 23.5578Z"/>
</mask>
<path d="M37.8948 23.5578C37.8948 22.0767 38.1807 20.6102 38.7362 19.2418C39.2916 17.8735 40.1057 16.6302 41.1321 15.5829C42.1584 14.5357 43.3768 13.7049 44.7178 13.1381C46.0587 12.5714 47.496 12.2797 48.9474 12.2797C50.3989 12.2797 51.8361 12.5714 53.1771 13.1382C54.518 13.7049 55.7364 14.5357 56.7628 15.5829C57.7891 16.6302 58.6032 17.8735 59.1587 19.2418C59.7141 20.6102 60 22.0767 60 23.5578L48.9474 23.5578L37.8948 23.5578Z" fill="#D6BBFB" stroke="#101828" stroke-width="4.83914" mask="url(#path-12-inside-3_4439_120083)"/>
<circle cx="48.9476" cy="7.0882" r="5.33154" fill="#D6BBFB" stroke="#101828" stroke-width="2.41957"/>
<path d="M46.0156 3.37193C51.6448 -0.265025 55.5538 6.51233 52.7825 9.79461C53.9083 4.47331 49.9993 2.4472 46.0156 3.37193Z" fill="#F4EBFF"/>
<path d="M43.3086 16.0963C49.0152 14.7751 54.6428 16.5692 56.3115 21.7473H58.033C56.9829 16.1435 50.967 11.1613 43.3086 16.0963Z" fill="#F4EBFF"/>
</svg>
