<svg xmlns="http://www.w3.org/2000/svg" width="60" height="72" viewBox="0 0 60 72" fill="none">
<path d="M1.20978 46.3862V14.5451C2.02824 15.7641 2.95157 16.6173 3.94323 17.1987C5.84667 18.3145 7.8253 18.2927 9.09993 18.2786C9.23271 18.2772 9.35786 18.2758 9.47448 18.2758H42.0327V56.6694H11.4929C5.8137 56.6694 1.20978 52.0654 1.20978 46.3862Z" fill="#D6BBFB" stroke="#101828" stroke-width="2.41957"/>
<path d="M1.20978 9.53549C1.20978 5.23936 4.69249 1.75666 8.98862 1.75666H40.5751V17.3143H8.98862C4.69248 17.3143 1.20978 13.8316 1.20978 9.53549Z" fill="#FCFCFD" stroke="#101828" stroke-width="2.41957"/>
<path d="M40.3275 9.28906H12.6328" stroke="#101828" stroke-width="2.41957" stroke-linecap="round"/>
<path d="M7.52892 55.6907V19.0075C4.85663 18.7645 3.39902 17.7928 1.94141 16.5781V49.1324C2.07745 52.6418 5.09957 55.4478 7.52892 55.6907Z" fill="#A184E2"/>
<path d="M51.4102 34.8125L58.2883 41.6906L37.7168 62.2622L27.9498 65.151L30.8386 55.384L51.4102 34.8125Z" fill="#D6BBFB" stroke="#101828" stroke-width="2.41957"/>
<path d="M30.2812 54.9141L37.8396 62.4724" stroke="#101828" stroke-width="2.41957"/>
<rect x="55.5312" y="39.9766" width="2.42935" height="27.6946" transform="rotate(45 55.5312 39.9766)" fill="#A184E2"/>
</svg>
