<?xml version="1.0" encoding="UTF-8"?>
<!DOCTYPE svg PUBLIC "-//W3C//DTD SVG 1.1//EN" "http://www.w3.org/Graphics/SVG/1.1/DTD/svg11.dtd">
<svg xmlns="http://www.w3.org/2000/svg" version="1.1" width="4096px" height="1121px" style="shape-rendering:geometricPrecision; text-rendering:geometricPrecision; image-rendering:optimizeQuality; fill-rule:evenodd; clip-rule:evenodd" xmlns:xlink="http://www.w3.org/1999/xlink">
<g><path style="opacity:0.977" fill="#fbfbfc" d="M 308.5,55.5 C 339.612,52.4772 363.779,63.8105 381,89.5C 398.964,127.464 391.797,159.63 359.5,186C 341.075,196.377 321.408,199.377 300.5,195C 267.731,183.854 250.398,160.854 248.5,126C 251.436,87.9026 271.436,64.4026 308.5,55.5 Z"/></g>
<g><path style="opacity:0.983" fill="#ff5400" d="M 809.5,55.5 C 845.258,52.8324 870.758,67.499 886,99.5C 895.476,128.793 890.143,154.793 870,177.5C 860.705,185.387 850.205,191.22 838.5,195C 801.261,201.957 773.428,189.124 755,156.5C 742.611,122.224 749.777,93.0574 776.5,69C 781.158,66.3373 785.824,63.6706 790.5,61C 796.921,59.021 803.255,57.1877 809.5,55.5 Z"/></g>
<g><path style="opacity:0.984" fill="#fcfbfc" d="M 717.5,231.5 C 742.617,228.837 761.117,238.504 773,260.5C 777.666,273.839 777.666,287.172 773,300.5C 732.516,371.315 691.682,441.815 650.5,512C 732.833,512.333 815.167,512.667 897.5,513C 923.349,519.182 937.349,535.515 939.5,562C 938.276,588.223 924.943,604.557 899.5,611C 817.5,611.333 735.5,611.667 653.5,612C 693.374,679.629 732.874,747.462 772,815.5C 783.434,848.186 773.601,871.686 742.5,886C 720.89,891.56 702.723,886.06 688,869.5C 647.361,799.564 606.694,729.564 566,659.5C 526.743,727.014 487.743,794.681 449,862.5C 429.958,886.046 406.792,890.879 379.5,877C 358.252,859.895 352.419,838.395 362,812.5C 401.019,745.778 439.852,678.945 478.5,612C 399.167,611.667 319.833,611.333 240.5,611C 214.39,605.121 201.057,588.788 200.5,562C 201.853,535.317 215.519,518.984 241.5,513C 321.5,512.667 401.5,512.333 481.5,512C 440.782,442.882 400.616,373.382 361,303.5C 354.501,284.35 357.167,266.683 369,250.5C 395.301,227.267 420.968,227.934 446,252.5C 486.237,321.299 526.237,390.299 566,459.5C 605.655,390.86 645.322,322.193 685,253.5C 693.046,241.938 703.879,234.605 717.5,231.5 Z"/></g>
<g><path style="opacity:0.955" fill="#fcfcfd" d="M 2465.5,271.5 C 2498.83,271.5 2532.17,271.5 2565.5,271.5C 2565.5,302.5 2565.5,333.5 2565.5,364.5C 2532.17,364.667 2498.83,364.5 2465.5,364C 2464.17,333.167 2464.17,302.333 2465.5,271.5 Z"/></g>
<g><path style="opacity:0.986" fill="#fcfcfc" d="M 1471.5,282.5 C 1599.17,282.5 1726.83,282.5 1854.5,282.5C 1854.5,313.833 1854.5,345.167 1854.5,376.5C 1760.17,376.5 1665.83,376.5 1571.5,376.5C 1571.5,424.5 1571.5,472.5 1571.5,520.5C 1649.17,520.5 1726.83,520.5 1804.5,520.5C 1804.5,552.167 1804.5,583.833 1804.5,615.5C 1726.83,615.5 1649.17,615.5 1571.5,615.5C 1571.5,670.5 1571.5,725.5 1571.5,780.5C 1665.83,780.5 1760.17,780.5 1854.5,780.5C 1854.5,811.833 1854.5,843.167 1854.5,874.5C 1726.83,874.5 1599.17,874.5 1471.5,874.5C 1471.5,677.167 1471.5,479.833 1471.5,282.5 Z"/></g>
<g><path style="opacity:0.98" fill="#fcfcfc" d="M 2242.5,282.5 C 2276.5,282.5 2310.5,282.5 2344.5,282.5C 2344.5,479.833 2344.5,677.167 2344.5,874.5C 2314.5,874.5 2284.5,874.5 2254.5,874.5C 2254.67,864.494 2254.5,854.494 2254,844.5C 2246.43,850.699 2238.6,856.532 2230.5,862C 2191.48,882.935 2149.82,890.935 2105.5,886C 2074.96,882.711 2046.96,872.711 2021.5,856C 1983.43,828.542 1956.6,792.375 1941,747.5C 1922.41,686.028 1921.75,624.362 1939,562.5C 1958.07,503.113 1995.57,459.947 2051.5,433C 2096.96,415.889 2143.29,413.222 2190.5,425C 2209.31,430.266 2226.48,438.766 2242,450.5C 2242.5,394.501 2242.67,338.501 2242.5,282.5 Z M 2132.5,508.5 C 2191.03,503.326 2228.87,528.659 2246,584.5C 2254.18,615.663 2256.84,647.33 2254,679.5C 2251.7,706.766 2243.7,732.099 2230,755.5C 2220.5,769.781 2208,780.615 2192.5,788C 2155.09,802.415 2119.09,799.748 2084.5,780C 2078.04,775.545 2072.21,770.378 2067,764.5C 2051.84,745.404 2041.84,723.738 2037,699.5C 2029.13,658.423 2031.8,618.089 2045,578.5C 2058.04,546.123 2080.88,523.956 2113.5,512C 2120.03,511.126 2126.36,509.959 2132.5,508.5 Z"/></g>
<g><path style="opacity:0.981" fill="#fbfbfc" d="M 2840.5,417.5 C 2885.06,414.981 2927.06,423.814 2966.5,444C 3007.01,467.372 3031.34,502.205 3039.5,548.5C 3039.29,549.086 3038.96,549.586 3038.5,550C 3005.14,556.061 2971.8,562.227 2938.5,568.5C 2935.67,559.86 2932.5,551.193 2929,542.5C 2919.78,529.481 2907.95,519.647 2893.5,513C 2863.88,502.289 2834.21,501.956 2804.5,512C 2787.75,518.92 2778.42,531.42 2776.5,549.5C 2777.45,562.269 2783.45,571.769 2794.5,578C 2799.83,580.667 2805.17,583.333 2810.5,586C 2826.42,590.985 2842.42,595.985 2858.5,601C 2888.63,607.711 2918.3,616.044 2947.5,626C 2971.79,634.553 2993.63,647.053 3013,663.5C 3029.61,680.73 3039.28,701.397 3042,725.5C 3047.78,792.487 3020.61,840.32 2960.5,869C 2901.39,890.477 2841.39,893.144 2780.5,877C 2744.33,866.513 2714.5,846.68 2691,817.5C 2675.97,795.415 2666.47,771.081 2662.5,744.5C 2693.15,739.559 2723.81,734.726 2754.5,730C 2758.15,729.501 2761.82,729.335 2765.5,729.5C 2769.29,746.911 2777.62,761.744 2790.5,774C 2812.06,792.089 2837.06,800.589 2865.5,799.5C 2886.45,801.016 2905.45,795.849 2922.5,784C 2938.06,770.482 2943.23,753.649 2938,733.5C 2934.66,725.821 2929.49,719.654 2922.5,715C 2916.74,712.623 2911.08,709.956 2905.5,707C 2869.35,696.138 2833.01,685.804 2796.5,676C 2770.18,667.847 2745.18,656.847 2721.5,643C 2709.91,634.388 2699.74,624.222 2691,612.5C 2671.74,572.977 2671.74,533.31 2691,493.5C 2708.98,463.577 2734.48,442.744 2767.5,431C 2791.24,422.601 2815.57,418.101 2840.5,417.5 Z"/></g>
<g><path style="opacity:0.984" fill="#fbfbfc" d="M 3315.5,417.5 C 3359.87,415.18 3401.53,424.346 3440.5,445C 3496.59,479.606 3531.09,529.439 3544,594.5C 3549.16,629.065 3549.83,663.732 3546,698.5C 3536.97,755.089 3511.47,802.256 3469.5,840C 3423.72,875.138 3371.72,890.805 3313.5,887C 3228.88,881.485 3167.38,841.319 3129,766.5C 3104.25,705.413 3099.58,642.747 3115,578.5C 3135.07,505.831 3180.23,455.997 3250.5,429C 3259.43,426.516 3268.43,424.183 3277.5,422C 3290.3,420.375 3302.96,418.875 3315.5,417.5 Z M 3317.5,511.5 C 3375.49,508.718 3414.32,534.384 3434,588.5C 3436.81,598.724 3439.14,609.058 3441,619.5C 3443.2,643.211 3442.87,666.878 3440,690.5C 3423.57,770.676 3374.74,803.51 3293.5,789C 3271.14,782.571 3252.97,770.071 3239,751.5C 3222.94,726.308 3214.27,698.641 3213,668.5C 3210.97,638.402 3214.63,609.069 3224,580.5C 3229.67,566.463 3237.34,553.797 3247,542.5C 3257.41,532.037 3269.58,524.203 3283.5,519C 3294.75,515.518 3306.08,513.018 3317.5,511.5 Z"/></g>
<g><path style="opacity:0.986" fill="#fbfbfc" d="M 3851.5,417.5 C 3882.96,415.478 3913.63,419.311 3943.5,429C 3980.95,446.119 4008.12,473.619 4025,511.5C 4037.17,542.667 4043.83,575 4045,608.5C 4045.5,697.166 4045.67,785.833 4045.5,874.5C 4011.83,874.5 3978.17,874.5 3944.5,874.5C 3944.67,797.833 3944.5,721.166 3944,644.5C 3943.2,618.999 3938.53,594.333 3930,570.5C 3908.52,523.339 3872.02,504.506 3820.5,514C 3786.56,521.182 3763.06,540.682 3750,572.5C 3743.39,592.251 3739.72,612.584 3739,633.5C 3738.5,713.833 3738.33,794.166 3738.5,874.5C 3704.83,874.5 3671.17,874.5 3637.5,874.5C 3637.5,726.167 3637.5,577.833 3637.5,429.5C 3667.17,429.333 3696.84,429.5 3726.5,430C 3727.32,445.092 3727.82,460.259 3728,475.5C 3761.57,440.47 3802.74,421.136 3851.5,417.5 Z"/></g>
<g><path style="opacity:0.974" fill="#fcfcfd" d="M 2465.5,429.5 C 2498.83,429.5 2532.17,429.5 2565.5,429.5C 2565.5,577.833 2565.5,726.167 2565.5,874.5C 2531.83,874.5 2498.17,874.5 2464.5,874.5C 2464.17,726.097 2464.5,577.763 2465.5,429.5 Z"/></g>
<g><path style="opacity:0.977" fill="#fbfbfc" d="M -0.5,575.5 C -0.5,564.833 -0.5,554.167 -0.5,543.5C 15.9527,497.704 47.9527,480.871 95.5,493C 130.289,509.533 144.789,537.033 139,575.5C 130.344,605.821 110.511,623.988 79.5,630C 59.169,632.002 40.8357,627.002 24.5,615C 19.6609,610.494 15.1609,605.661 11,600.5C 6.58675,592.346 2.75341,584.013 -0.5,575.5 Z"/></g>
<g><path style="opacity:0.976" fill="#fbfbfc" d="M 1057.5,488.5 C 1083.76,485.747 1105.92,493.747 1124,512.5C 1146.05,542.362 1146.72,572.695 1126,603.5C 1101.19,630.741 1071.69,637.241 1037.5,623C 1033,620.584 1028.67,617.917 1024.5,615C 1003.26,595.958 995.095,572.125 1000,543.5C 1008.67,513.995 1027.83,495.662 1057.5,488.5 Z"/></g>
<g><path style="opacity:0.976" fill="#fbfbfc" d="M 311.5,921.5 C 349.122,919.847 374.622,936.514 388,971.5C 395.553,1004.53 386.053,1031.36 359.5,1052C 332.788,1067.33 306.121,1067.33 279.5,1052C 249.069,1027.45 241.236,996.945 256,960.5C 267.792,937.864 286.292,924.864 311.5,921.5 Z"/></g>
<g><path style="opacity:0.978" fill="#fbfbfc" d="M 811.5,921.5 C 830.086,920.509 847.086,925.009 862.5,935C 885.481,953.755 894.314,977.921 889,1007.5C 883.543,1030.94 870.043,1047.77 848.5,1058C 820.282,1068.02 794.615,1063.69 771.5,1045C 756.507,1031.01 748.841,1013.67 748.5,993C 750.021,959.912 766.021,937.245 796.5,925C 801.664,923.957 806.664,922.79 811.5,921.5 Z"/></g>
</svg>
