<svg xmlns="http://www.w3.org/2000/svg" width="64" height="63" viewBox="0 0 64 63" fill="none">
<circle cx="31.7618" cy="31.3048" r="13.7903" fill="#D6BBFB" stroke="#101828" stroke-width="2.41957"/>
<path d="M23.9023 20.9516C39.3786 11.1834 50.0929 29.9932 42.4739 38.8088C45.5691 24.5168 34.8548 18.4679 23.9023 20.9516Z" fill="#F4EBFF"/>
<path d="M61.9999 32.7567C62.668 32.7567 63.2097 32.215 63.2097 31.5469C63.2097 30.8787 62.668 30.3371 61.9999 30.3371V32.7567ZM61.9999 30.3371H46.7617V32.7567H61.9999V30.3371Z" fill="#101828"/>
<path d="M2.00011 30.1574C1.33197 30.1574 0.790329 30.699 0.790329 31.3672C0.790329 32.0353 1.33197 32.577 2.00011 32.577L2.00011 30.1574ZM2.00011 32.577L17.2383 32.577L17.2383 30.1574L2.00011 30.1574L2.00011 32.577Z" fill="#101828"/>
<path d="M33.2098 1.54308C33.2098 0.874936 32.6681 0.333298 32 0.333298C31.3319 0.333298 30.7902 0.874936 30.7902 1.54308L33.2098 1.54308ZM30.7902 1.54308L30.7902 16.7813L33.2098 16.7812L33.2098 1.54308L30.7902 1.54308Z" fill="#101828"/>
<path d="M30.7902 61.371C30.7902 62.0391 31.3319 62.5808 32 62.5808C32.6681 62.5808 33.2098 62.0391 33.2098 61.371L30.7902 61.371ZM33.2098 61.371L33.2098 46.1328L30.7902 46.1328L30.7902 61.371L33.2098 61.371Z" fill="#101828"/>
<path d="M51.443 52.7008C51.9155 53.1732 52.6814 53.1732 53.1539 52.7008C53.6263 52.2283 53.6263 51.4623 53.1539 50.9899L51.443 52.7008ZM53.1539 50.9899L42.3789 40.2149L40.668 41.9258L51.443 52.7008L53.1539 50.9899Z" fill="#101828"/>
<path d="M12.557 10.2133C12.0845 9.74084 11.3186 9.74084 10.8461 10.2133C10.3737 10.6857 10.3737 11.4517 10.8461 11.9242L12.557 10.2133ZM10.8461 11.9242L21.6211 22.6992L23.332 20.9883L12.557 10.2133L10.8461 11.9242Z" fill="#101828"/>
<path d="M51.9196 9.26017C52.392 8.78772 53.158 8.78772 53.6305 9.26017C54.1029 9.73262 54.1029 10.4986 53.6305 10.9711L51.9196 9.26017ZM53.6305 10.9711L42.8554 21.7461L41.1446 20.0352L51.9196 9.26017L53.6305 10.9711Z" fill="#101828"/>
<path d="M12.0804 53.6539C11.608 54.1263 10.842 54.1263 10.3695 53.6539C9.89709 53.1814 9.89709 52.4155 10.3695 51.943L12.0804 53.6539ZM10.3695 51.943L21.1446 41.168L22.8554 42.8789L12.0804 53.6539L10.3695 51.943Z" fill="#101828"/>
</svg>
