<svg width="111" height="30" viewBox="0 0 111 30" fill="none" xmlns="http://www.w3.org/2000/svg">
  <path d="M0 29.5H6.16453V0.499998H0V29.5ZM32.8871 0.500149L20.2551 24.6786L15.1938 15.0001L22.7727 0.500149H16.012L8.30825 15.0001L16.012 29.5H24.4094L26.7667 24.9808H35.4222L32.8959 20.1505H29.2932L32.8959 13.2475L41.3737 29.5H48.0364L32.8869 0.500149H32.8871ZM62.2874 0.500149L53.792 16.7527L45.3057 0.500149H38.6429L53.7925 29.5L68.942 0.500149H62.288H62.2874ZM87.32 0.500149V24.6519L74.7058 0.500149L59.5563 29.5H66.2192L74.7145 13.2476L78.317 20.1506H74.7145L72.188 24.981H80.8435L83.2009 29.5H93.493V0.500149H87.3196H87.32ZM103.332 0.500149L95.6283 15.0001L103.332 29.5H110.093L102.514 15.0001L110.093 0.500149H103.332Z" fill="black"/>
</svg>
