
<svg width="18" height="18" viewBox="0 0 18 18" fill="none" xmlns="http://www.w3.org/2000/svg">
<g id="Broadcast">
<g id="Vector">
<path d="M8.99993 6.18705C8.44367 6.18705 7.8999 6.352 7.43739 6.66104C6.97488 6.97008 6.61439 7.40934 6.40152 7.92325C6.18865 8.43717 6.13295 9.00267 6.24147 9.54824C6.34999 10.0938 6.61786 10.595 7.01119 10.9883C7.40453 11.3816 7.90567 11.6495 8.45124 11.758C8.99681 11.8665 9.56231 11.8108 10.0762 11.598C10.5901 11.3851 11.0294 11.0246 11.3384 10.5621C11.6475 10.0996 11.8124 9.55581 11.8124 8.99955C11.8124 8.25363 11.5161 7.53826 10.9887 7.01081C10.4612 6.48337 9.74585 6.18705 8.99993 6.18705ZM8.99993 10.6871C8.66617 10.6871 8.33991 10.5881 8.06241 10.4027C7.7849 10.2172 7.56861 9.95368 7.44088 9.64533C7.31316 9.33698 7.27974 8.99768 7.34486 8.67034C7.40997 8.34299 7.57069 8.04231 7.80669 7.80631C8.04269 7.57031 8.34337 7.40959 8.67072 7.34448C8.99806 7.27936 9.33736 7.31278 9.64571 7.4405C9.95406 7.56823 10.2176 7.78452 10.403 8.06203C10.5885 8.33953 10.6874 8.66579 10.6874 8.99955C10.6874 9.4471 10.5096 9.87633 10.1932 10.1928C9.87671 10.5093 9.44748 10.6871 8.99993 10.6871ZM14.1827 11.1891C13.941 11.7604 13.6065 12.2879 13.1927 12.75C13.0925 12.8584 12.9536 12.9231 12.8062 12.9301C12.6587 12.9371 12.5144 12.8858 12.4044 12.7874C12.2944 12.6889 12.2275 12.5511 12.2182 12.4038C12.2089 12.2564 12.2578 12.1113 12.3545 11.9998C13.0931 11.1751 13.5015 10.107 13.5015 8.9999C13.5015 7.89284 13.0931 6.82469 12.3545 6.00002C12.3039 5.94522 12.2647 5.88089 12.2391 5.81077C12.2136 5.74066 12.2022 5.66616 12.2058 5.59163C12.2093 5.51709 12.2276 5.444 12.2597 5.37661C12.2917 5.30923 12.3369 5.24889 12.3925 5.19912C12.4481 5.14935 12.513 5.11115 12.5835 5.08672C12.654 5.0623 12.7287 5.05215 12.8032 5.05686C12.8777 5.06158 12.9504 5.08106 13.0173 5.11418C13.0842 5.14731 13.1438 5.1934 13.1927 5.24978C13.9029 6.04455 14.373 7.0246 14.5483 8.07598C14.7235 9.12737 14.5967 10.2069 14.1827 11.1891ZM4.85149 7.24807C4.5196 8.03372 4.41781 8.89751 4.55799 9.73879C4.69816 10.5801 5.07452 11.3642 5.64321 11.9998C5.73992 12.1113 5.78889 12.2564 5.77956 12.4038C5.77023 12.5511 5.70335 12.6889 5.59335 12.7874C5.48335 12.8858 5.33904 12.9371 5.19157 12.9301C5.0441 12.9231 4.90529 12.8584 4.80509 12.75C3.88159 11.7192 3.37093 10.3839 3.37093 8.9999C3.37093 7.61592 3.88159 6.2806 4.80509 5.24978C4.90457 5.13836 5.04425 5.07103 5.19338 5.06259C5.34252 5.05415 5.4889 5.1053 5.60032 5.20478C5.71174 5.30427 5.77908 5.44395 5.78752 5.59308C5.79596 5.74222 5.74481 5.8886 5.64532 6.00002C5.31345 6.36922 5.04519 6.79097 4.85149 7.24807ZM17.4374 8.99955C17.4408 11.2086 16.5748 13.3302 15.0264 14.9058C14.9752 14.9606 14.9135 15.0045 14.8451 15.0351C14.7766 15.0657 14.7027 15.0823 14.6277 15.0839C14.5528 15.0855 14.4782 15.0722 14.4085 15.0445C14.3388 15.0169 14.2753 14.9757 14.2217 14.9232C14.1682 14.8707 14.1257 14.808 14.0967 14.7388C14.0678 14.6696 14.0529 14.5954 14.0531 14.5204C14.0533 14.4454 14.0684 14.3712 14.0977 14.3021C14.1269 14.2331 14.1697 14.1706 14.2234 14.1183C15.5641 12.7524 16.3152 10.9149 16.3152 9.00096C16.3152 7.08703 15.5641 5.24953 14.2234 3.88361C14.1186 3.77713 14.0604 3.63338 14.0616 3.48398C14.0628 3.33458 14.1233 3.19177 14.2298 3.08697C14.3363 2.98217 14.48 2.92396 14.6294 2.92515C14.7788 2.92633 14.9216 2.98682 15.0264 3.0933C16.5748 4.66888 17.4408 6.79052 17.4374 8.99955ZM3.77642 14.1169C3.82822 14.1696 3.86912 14.232 3.8968 14.3006C3.92449 14.3691 3.9384 14.4424 3.93774 14.5163C3.93709 14.5902 3.92189 14.6633 3.893 14.7313C3.86411 14.7994 3.82211 14.861 3.76938 14.9128C3.71666 14.9646 3.65425 15.0055 3.58572 15.0332C3.51718 15.0609 3.44387 15.0748 3.36996 15.0742C3.29605 15.0735 3.22299 15.0583 3.15496 15.0294C3.08692 15.0005 3.02525 14.9585 2.97345 14.9058C1.42529 13.3297 0.557861 11.2088 0.557861 8.99955C0.557861 6.7903 1.42529 4.66937 2.97345 3.0933C3.02467 3.03853 3.08633 2.99456 3.1548 2.96397C3.22326 2.93338 3.29716 2.91679 3.37213 2.91517C3.4471 2.91355 3.52164 2.92694 3.59136 2.95455C3.66108 2.98216 3.72458 3.02343 3.77812 3.07594C3.83166 3.12845 3.87416 3.19113 3.90312 3.2603C3.93208 3.32948 3.94692 3.40374 3.94676 3.47873C3.9466 3.55372 3.93145 3.62792 3.90219 3.69697C3.87294 3.76602 3.83018 3.82852 3.77642 3.8808C2.43574 5.24672 1.68465 7.08421 1.68465 8.99814C1.68465 10.9121 2.43574 12.7496 3.77642 14.1155V14.1169Z" fill="#000"/>
<path d="M8.99993 10.6871C8.66617 10.6871 8.33991 10.5881 8.06241 10.4027C7.7849 10.2172 7.56861 9.95368 7.44088 9.64533C7.31316 9.33698 7.27974 8.99768 7.34486 8.67034C7.40997 8.34299 7.57069 8.04231 7.80669 7.80631C8.04269 7.57031 8.34337 7.40959 8.67072 7.34448C8.99806 7.27936 9.33736 7.31278 9.64571 7.4405C9.95406 7.56823 10.2176 7.78452 10.403 8.06203C10.5885 8.33953 10.6874 8.66579 10.6874 8.99955C10.6874 9.4471 10.5096 9.87633 10.1932 10.1928C9.87671 10.5093 9.44748 10.6871 8.99993 10.6871Z" fill="none"/>
</g>
</g>
</svg>
