<svg width="31" height="30" viewBox="0 0 31 30" fill="none" xmlns="http://www.w3.org/2000/svg">
  <path d="M26.7322 5.52119C26.7045 5.06407 26.5104 4.63292 26.1865 4.30909C25.8627 3.98527 25.4316 3.79115 24.9744 3.76337C23.5002 3.67548 19.7326 3.81025 16.6061 6.93564L16.0494 7.49931H9.21388C8.96671 7.49792 8.72173 7.54569 8.49318 7.63984C8.26464 7.73399 8.0571 7.87265 7.88263 8.04775L3.8631 12.0696C3.6166 12.316 3.44362 12.6261 3.36359 12.9653C3.28356 13.3045 3.29964 13.6593 3.41002 13.9898C3.52041 14.3204 3.72073 14.6136 3.98851 14.8366C4.25629 15.0597 4.58093 15.2036 4.92599 15.2524L9.4342 15.8817L14.6151 21.0626L15.2444 25.5731C15.2927 25.9182 15.4367 26.2429 15.6599 26.5104C15.8832 26.778 16.1768 26.9778 16.5076 27.0872C16.7003 27.1516 16.9021 27.1844 17.1053 27.1845C17.3513 27.1849 17.5949 27.1367 17.8222 27.0426C18.0495 26.9485 18.2559 26.8103 18.4295 26.636L22.4514 22.6165C22.6265 22.442 22.7651 22.2345 22.8593 22.0059C22.9534 21.7774 23.0012 21.5324 22.9998 21.2852V14.4497L23.5588 13.8907C26.6854 10.7642 26.8201 6.99658 26.7322 5.52119ZM9.21388 9.37431H14.1744L9.54201 14.0056L5.18732 13.3985L9.21388 9.37431ZM17.9338 8.26689C18.8347 7.36049 19.9185 6.65674 21.1131 6.20265C22.3076 5.74856 23.5853 5.55459 24.8608 5.63369C24.9429 6.90983 24.7509 8.18878 24.2978 9.38458C23.8446 10.5804 23.1407 11.6653 22.2334 12.5665L15.4998 19.2977L11.2014 14.9993L17.9338 8.26689ZM21.1248 21.2852L17.1018 25.3118L16.4936 20.956L21.1248 16.3247V21.2852ZM12.4342 22.3985C11.9069 23.554 10.1432 26.2493 5.18732 26.2493C4.93868 26.2493 4.70022 26.1505 4.52441 25.9747C4.34859 25.7989 4.24982 25.5605 4.24982 25.3118C4.24982 20.356 6.94513 18.5923 8.1006 18.0638C8.21264 18.0127 8.33364 17.9841 8.4567 17.9798C8.57975 17.9755 8.70246 17.9954 8.81781 18.0385C8.93315 18.0816 9.03889 18.147 9.12896 18.231C9.21904 18.3149 9.2917 18.4158 9.34279 18.5278C9.39388 18.6399 9.42241 18.7609 9.42674 18.8839C9.43107 19.007 9.41112 19.1297 9.36802 19.245C9.32493 19.3604 9.25954 19.4661 9.17559 19.5562C9.09164 19.6463 8.99076 19.7189 8.87873 19.77C8.12521 20.1134 6.46232 21.2185 6.16935 24.3298C9.28068 24.0368 10.3881 22.3739 10.7291 21.6204C10.7802 21.5084 10.8529 21.4075 10.9429 21.3235C11.033 21.2396 11.1388 21.1742 11.2541 21.1311C11.3695 21.088 11.4922 21.0681 11.6152 21.0724C11.7383 21.0767 11.8593 21.1052 11.9713 21.1563C12.0833 21.2074 12.1842 21.2801 12.2682 21.3702C12.3521 21.4602 12.4175 21.566 12.4606 21.6813C12.5037 21.7967 12.5236 21.9194 12.5193 22.0424C12.515 22.1655 12.4865 22.2865 12.4354 22.3985H12.4342Z" fill="#FCFCFD"/>
</svg>
