<svg width="24" height="21" viewBox="0 0 24 21" fill="none" xmlns="http://www.w3.org/2000/svg">
  <path fill-rule="evenodd" clip-rule="evenodd" d="M0.0528832 15.4207C-0.303481 12.4192 1.02069 3.44468 7.73995 0.00807308C7.86421 -0.0554798 7.67823 0.259082 7.32911 0.849595C6.39847 2.42369 4.30856 5.9586 3.84535 9.51923C4.41672 9.32443 5.02935 9.21875 5.66666 9.21875C8.78226 9.21875 11.308 11.7444 11.308 14.86C11.308 17.9756 8.78226 20.5013 5.66666 20.5013C2.74028 20.5013 0.334324 18.2731 0.0528832 15.4207Z" fill="#FCFCFD"/>
  <path fill-rule="evenodd" clip-rule="evenodd" d="M12.7443 15.4207C12.3879 12.4192 13.7121 3.44468 20.4314 0.00807308C20.5556 -0.0554798 20.3696 0.259082 20.0205 0.849595C19.0899 2.42369 17 5.9586 16.5368 9.51923C17.1081 9.32443 17.7208 9.21875 18.3581 9.21875C21.4737 9.21875 23.9994 11.7444 23.9994 14.86C23.9994 17.9756 21.4737 20.5013 18.3581 20.5013C15.4317 20.5013 13.0257 18.2731 12.7443 15.4207Z" fill="#FCFCFD"/>
</svg>
