
<svg xmlns="http://www.w3.org/2000/svg" viewBox="0 0 1440 320">
  <!-- Segunda figura (la parte de abajo) -->
  <path fill="#6941c6" fill-opacity="1" d="M0,96L48,90.7C96,85,192,75,288,74.7C384,75,480,85,576,128C672,171,768,245,864,250.7C960,256,1056,192,1152,144C1248,96,1344,64,1392,48L1440,32L1440,0L1392,0C1344,0,1248,0,1152,0C1056,0,960,0,864,0C768,0,672,0,576,0C480,0,384,0,288,0C192,0,96,0,48,0L0,0Z"></path>
  <!-- Primera figura (la parte superior) -->
  <path fill="#6941c6" fill-opacity="1" d="M0,96L48,90.7C96,85,192,75,288,74.7C384,75,480,85,576,128C672,171,768,245,864,250.7C960,256,1056,192,1152,144C1248,96,1344,64,1392,48L1440,32L1440,320L1392,320C1344,320,1248,320,1152,320C1056,320,960,320,864,320C768,320,672,320,576,320C480,320,384,320,288,320C192,320,96,320,48,320L0,320Z"></path>
</svg>
