<svg width="179" height="28" viewBox="0 0 179 28" fill="none" xmlns="http://www.w3.org/2000/svg">
  <g clip-path="url(#clip0_5677_145632)">
    <path d="M76.7903 0.390625C74.6787 0.390625 73.0544 2.0149 73.0544 4.28889C73.0544 6.07559 74.1914 7.05016 75.9781 7.05016C78.0897 7.05016 79.714 5.42589 79.714 3.1519C79.714 1.52762 78.7394 0.390625 76.7903 0.390625ZM70.1307 1.36519C70.1307 1.20276 69.9683 1.20276 69.8059 1.20276H65.0955C64.933 1.20276 64.7706 1.36519 64.6082 1.52762C64.6082 1.52762 62.8215 10.6236 62.6591 11.1109C61.5221 8.9993 59.0857 7.69987 56.3244 7.69987C50.6394 7.69987 46.4163 12.2479 46.4163 18.5825C46.4163 23.7802 49.5024 27.3536 54.2128 27.3536C56.4868 27.3536 58.4359 26.3791 59.8978 24.7548C59.7354 25.2421 59.7354 25.7294 59.5729 26.2166C59.5729 26.3791 59.5729 26.5415 59.7354 26.5415C59.7354 26.7039 59.8978 26.7039 60.0602 26.7039H64.7706C64.933 26.7039 65.0955 26.5415 65.2579 26.3791L70.2932 1.52762L70.1307 1.36519ZM61.0348 17.608C60.8724 18.2577 60.7099 18.9074 60.3851 19.3947C60.0602 19.882 59.7354 20.5317 59.2481 20.8565C58.7608 21.3438 58.2735 21.6687 57.7862 21.8311C56.8117 22.3184 55.5122 22.3184 54.5377 21.8311C54.0504 21.6687 53.7255 21.3438 53.4007 21.0189C53.0758 20.6941 52.9134 20.2068 52.751 19.7195C52.5885 19.2322 52.5885 18.745 52.5885 18.0952C52.5885 17.4455 52.751 16.6334 53.0758 15.9837C53.4007 15.334 53.7255 14.6843 54.2128 14.197C54.7001 13.7097 55.1874 13.3848 55.8371 13.06C56.4868 12.7351 57.1365 12.5727 57.7862 12.5727C58.4359 12.5727 58.9232 12.7351 59.4105 12.8976C59.8978 13.06 60.2226 13.3848 60.5475 13.8721C60.8724 14.197 61.0348 14.6843 61.1972 15.334C61.1972 16.3085 61.1972 16.9583 61.0348 17.608ZM77.6024 9.81143H72.7296C72.5672 9.81143 72.4047 9.97386 72.2423 10.1363L68.9937 26.3791C68.9937 26.5415 68.9937 26.5415 69.1562 26.7039C69.3186 26.8664 69.3186 26.8663 69.481 26.8663H74.3538C74.5163 26.8663 74.6787 26.7039 74.8411 26.5415L78.0897 10.2987C78.0897 10.1363 78.0897 10.1363 77.9273 9.97386C77.7648 9.97386 77.6024 9.81143 77.6024 9.81143ZM6.7839 25.4045C7.27118 23.1305 8.24575 18.2577 8.24575 18.2577H13.9307C20.4278 18.2577 24.651 14.6843 24.651 9.16172C24.651 4.28889 21.24 1.20276 15.555 1.20276H5.80934C5.64691 1.20276 5.48448 1.36519 5.32205 1.52762L0.449219 26.2166C0.449219 26.3791 0.449221 26.5415 0.611649 26.5415C0.611649 26.7039 0.774081 26.7039 0.936508 26.7039H5.32205C5.15962 26.8664 6.45905 26.8663 6.7839 25.4045ZM14.0932 12.8976H9.22032C9.22032 12.7351 10.5198 6.72531 10.5198 6.40045H15.0677C17.1793 6.40045 18.4787 7.37502 18.4787 9.16172C18.3163 11.5981 16.8544 12.8976 14.0932 12.8976ZM113.662 7.8623C107.327 7.8623 102.617 12.4103 102.617 18.745C102.617 24.1051 106.353 27.5161 112.038 27.5161C118.372 27.5161 123.083 22.9681 123.083 16.6334C122.92 11.2733 119.347 7.8623 113.662 7.8623ZM112.362 21.9935C109.926 21.9935 108.464 20.6941 108.464 18.4201C108.464 15.4964 110.413 13.5473 113.174 13.5473C115.611 13.5473 117.073 14.8467 117.073 17.1207C117.073 19.882 115.124 21.9935 112.362 21.9935ZM103.266 1.36519C103.266 1.20276 103.104 1.20276 102.942 1.20276H98.2307C98.0683 1.20276 97.9059 1.36519 97.7435 1.52762C97.7435 1.52762 95.9568 10.6236 95.7943 11.1109C94.6573 8.9993 92.2209 7.69987 89.4596 7.69987C83.7747 7.69987 79.5516 12.2479 79.5516 18.5825C79.5516 23.7802 82.6377 27.3536 87.3481 27.3536C89.6221 27.3536 91.5712 26.3791 93.033 24.7548C92.8706 25.2421 92.8706 25.7294 92.7082 26.2166C92.7082 26.3791 92.7082 26.5415 92.8706 26.5415C92.8706 26.7039 93.033 26.7039 93.1955 26.7039H97.9059C98.0683 26.7039 98.2307 26.5415 98.3932 26.3791L103.429 1.52762C103.429 1.52762 103.266 1.52762 103.266 1.36519ZM94.3325 17.608C94.17 18.2577 94.0076 18.9074 93.6828 19.3947C93.3579 19.882 93.0331 20.5317 92.5458 20.8565C92.0585 21.3438 91.5712 21.6687 91.0839 21.8311C90.1094 22.3184 88.8099 22.3184 87.8354 21.8311C87.3481 21.6687 87.0232 21.3438 86.6984 21.0189C86.3735 20.6941 86.2111 20.2068 86.0487 19.7195C85.8862 19.2322 85.8862 18.745 85.8862 18.0952C85.8862 17.4455 86.0487 16.6334 86.3735 15.9837C86.6984 15.334 87.0232 14.6843 87.5105 14.197C87.9978 13.7097 88.4851 13.3848 89.1348 13.06C89.7845 12.7351 90.4342 12.5727 91.0839 12.5727C91.7336 12.5727 92.2209 12.7351 92.7082 12.8976C93.1955 13.06 93.5203 13.3848 93.8452 13.8721C94.17 14.197 94.3325 14.6843 94.4949 15.334C94.3325 16.3085 94.3325 16.9583 94.3325 17.608ZM138.513 9.32415C136.077 8.18716 133.478 7.69987 131.204 7.8623C127.143 8.18716 124.869 10.6236 125.194 14.197C125.357 16.3085 126.656 17.9328 128.93 19.2322L131.529 20.5317C132.503 21.0189 132.666 21.3438 132.666 21.6687C132.666 22.4808 131.854 22.6432 131.366 22.6432C129.742 22.8057 127.793 22.1559 125.681 20.8565H125.357C125.194 20.8565 125.194 21.0189 125.032 21.0189L122.92 24.5924C122.758 24.7548 122.92 25.0796 123.083 25.0796C125.681 26.8663 128.605 27.6785 131.529 27.3536C136.077 27.0288 138.351 24.5924 138.026 20.8565C137.864 18.5825 136.727 17.1207 134.29 15.8213L132.016 14.6843C130.717 13.8721 130.554 13.7097 130.554 13.3848C130.554 13.2224 130.554 12.5727 131.854 12.4103C133.153 12.2479 134.777 12.7351 136.402 13.5473H136.727C136.889 13.5473 136.889 13.3848 136.889 13.3848L138.513 9.64901C138.838 9.64901 138.676 9.32415 138.513 9.32415ZM164.014 2.0149C164.014 1.85248 163.852 1.69005 163.69 1.69005H157.03C156.868 1.69005 156.705 1.69005 156.705 1.85247C156.705 1.85247 150.046 11.2733 149.558 12.0854C149.396 11.2733 146.147 2.0149 146.147 2.0149C146.147 1.85248 145.985 1.69005 145.66 1.69005H139.813C139.65 1.69005 139.488 1.69005 139.488 1.85247C139.325 2.0149 139.325 2.17733 139.488 2.33976L145.66 17.9328L143.873 27.0288C143.873 27.1912 143.873 27.3536 144.036 27.3536C144.198 27.5161 144.198 27.5161 144.361 27.5161H149.071C149.721 27.5161 150.208 27.0288 150.37 26.5415L151.995 18.0952L164.177 2.33976C164.014 2.33976 164.014 2.17733 164.014 2.0149ZM178.146 8.9993C178.146 8.83687 177.983 8.83687 177.821 8.83687H173.273C173.11 8.83687 172.948 8.9993 172.948 9.16172C172.948 9.16172 172.785 9.97386 172.623 10.6236C171.648 9.32415 170.024 8.67444 168.4 8.51201C166.938 8.34958 165.476 8.67444 164.177 9.16172C159.629 10.9484 156.705 15.334 156.705 20.2068C156.705 24.4299 159.466 27.3536 163.69 27.5161C165.964 27.6785 167.913 26.8663 169.699 25.4045C169.537 25.8918 169.537 26.3791 169.375 26.8663C169.375 27.0288 169.375 27.0288 169.537 27.1912C169.537 27.3536 169.699 27.3536 169.862 27.3536H174.41C174.572 27.3536 174.735 27.1912 174.735 27.0288L178.308 9.32415C178.146 9.32415 178.146 9.16172 178.146 8.9993ZM170.999 18.0952C170.836 18.745 170.674 19.3947 170.349 19.882C170.024 20.3692 169.699 20.8565 169.212 21.3438L167.75 22.3184C166.776 22.8057 165.476 22.8057 164.664 22.3184C164.177 22.1559 163.852 21.8311 163.527 21.5062C163.202 21.1814 163.04 20.8565 162.877 20.3692C162.715 19.882 162.715 19.3947 162.715 18.745C162.715 18.0952 162.877 17.4455 163.202 16.7958C163.527 16.1461 163.852 15.6588 164.339 15.1715C164.827 14.6843 165.314 14.3594 165.801 14.0346C166.451 13.7097 166.938 13.7097 167.588 13.7097C168.075 13.7097 168.725 13.8721 169.05 14.0346C169.537 14.197 169.862 14.5218 170.187 14.8467C170.512 15.1716 170.674 15.6588 170.836 16.3085C171.161 16.7958 171.161 17.4455 170.999 18.0952ZM35.8585 7.8623C29.5238 7.8623 24.9758 12.4103 24.9758 18.745C24.9758 24.1051 28.7117 27.5161 34.5591 27.5161C37.1579 27.5161 39.4319 26.8664 41.7059 25.2421C41.8683 25.0796 41.8683 24.7548 41.7059 24.5924L38.7822 21.6687C38.6197 21.5062 38.4573 21.5062 38.2949 21.6687C36.9955 22.3184 35.8585 22.6432 34.5591 22.6432C31.7978 22.6432 30.3359 21.3438 30.3359 19.2322H43.4926C43.655 19.2322 43.8174 19.0698 43.9799 18.9074C44.3047 17.608 44.4671 16.6334 44.4671 15.4964C44.3047 10.786 41.0562 7.8623 35.8585 7.8623ZM30.9856 15.1715C31.7978 13.06 33.4221 12.0854 35.6961 12.0854C38.1325 12.0854 39.2695 13.2224 39.2695 15.334C38.9446 15.1715 31.3105 15.1715 30.9856 15.1715Z" fill="#ED2F42"/>
  </g>
  <defs>
    <clipPath id="clip0_5677_145632">
      <rect width="178" height="28" fill="white" transform="translate(0.308594)"/>
    </clipPath>
  </defs>
</svg>
